# xmcd CD database file
#
# Track frame offsets:
#	183
#	25980
#	53095
#	74928
#	83023
#	111533
#	134903
#	155585
#	167243
#
# Disc length: 2581 seconds
#
# Revision: 1
# Processed by: cddbd v1.4PL0 Copyright (c) Steve Scherf et al.
# Submitted via: CDex 1.50beta10
#
DISCID=890a1309
DTITLE=Lurrie Bell - Everybody Wants To Win
DYEAR=1989
DGENRE=Blues
TTITLE0=Everybody Wants To Win
TTITLE1=Going Back To Louisiana
TTITLE2=I Feel So Bad
TTITLE3=1215 W. Belmont Avenue
TTITLE4=Second Hand Man
TTITLE5=The Train I Ride
TTITLE6=Teenie Weenie Bit
TTITLE7=No Picks
TTITLE8=Cadillac Assembly Line
EXTD=YEAR: 1989
EXTT0=
EXTT1=
EXTT2=
EXTT3=
EXTT4=
EXTT5=
EXTT6=
EXTT7=
EXTT8=
PLAYORDER=
